# xmcd
#
# Track frame offsets: 
#        150
#        24944
#        36128
#        62456
#        78616
#        95710
#        128366
#        153998
#        176568
#        198031
#        212827
#        235991
#        261817
#        276739
#        294846
#        314638
#
# Disc length: 4416 seconds
#
# Revision: 0
# Processed by: cddbd v1.5.1PL2 Copyright (c) Steve Scherf et al.
# Submitted via: ExactAudioCopy v0.95b4
#
DISCID=de113e10
DTITLE=Alaska - 2000-07-08 - Dew Drop Inn - York PA
DYEAR=2000
DGENRE=Progressive Rock
TTITLE0=The Joker
TTITLE1=Squeeze Box
TTITLE2=Breakdown
TTITLE3=Behind Blue Eyes
TTITLE4=Ziggy Stardust
TTITLE5=Since I've Been Loving You
TTITLE6=Mary Jane's Last Dance
TTITLE7=Freefallin'
TTITLE8=Venus Isle
TTITLE9=Your Move
TTITLE10=Frankenstein
TTITLE11=Smoke On The Water
TTITLE12=Cliffs Of Dover Intro
TTITLE13=Cliffs Of Dover
TTITLE14=Steppin' Out
TTITLE15=Purple Haze
EXTD=
EXTT0=
EXTT1=
EXTT2=
EXTT3=
EXTT4=
EXTT5=
EXTT6=
EXTT7=
EXTT8=
EXTT9=
EXTT10=
EXTT11=
EXTT12=
EXTT13=
EXTT14=
EXTT15=
PLAYORDER=
